<svg width="256" height="256" xmlns="http://www.w3.org/2000/svg" viewBox="0 0 256 256">
  <!-- Background -->
  <rect width="256" height="256" fill="#4f46e5" rx="24"/>

  <!-- Large Gear -->
  <g transform="translate(90, 90)">
    <!-- Gear teeth -->
    <path d="M 0,-40 L 8,-48 L 8,-32 L 16,-40 L 24,-32 L 24,-48 L 32,-40 L 32,-24 L 48,-24 L 40,-16 L 48,-8 L 32,-8 L 40,0 L 48,8 L 32,8 L 32,24 L 24,32 L 24,16 L 16,24 L 8,16 L 8,32 L 0,24 L 0,40 L -8,32 L -8,48 L -16,40 L -24,32 L -24,48 L -32,40 L -32,24 L -48,24 L -40,16 L -48,8 L -32,8 L -40,0 L -48,-8 L -32,-8 L -32,-24 L -24,-32 L -24,-16 L -16,-24 L -8,-16 L -8,-32 Z" fill="#ffffff" stroke="#e5e7eb" stroke-width="2"/>
    <!-- Center circle -->
    <circle cx="0" cy="0" r="16" fill="#4f46e5" stroke="#ffffff" stroke-width="3"/>
  </g>

  <!-- Small Gear -->
  <g transform="translate(160, 160)">
    <!-- Gear teeth -->
    <path d="M 0,-28 L 6,-34 L 6,-22 L 12,-28 L 18,-22 L 18,-34 L 24,-28 L 24,-18 L 34,-18 L 28,-12 L 34,-6 L 24,-6 L 28,0 L 34,6 L 24,6 L 24,18 L 18,24 L 18,12 L 12,18 L 6,12 L 6,24 L 0,18 L 0,28 L -6,24 L -6,34 L -12,28 L -18,24 L -18,34 L -24,28 L -24,18 L -34,18 L -28,12 L -34,6 L -24,6 L -28,0 L -34,-6 L -24,-6 L -24,-18 L -18,-24 L -18,-12 L -12,-18 L -6,-12 L -6,-24 Z" fill="#ffffff" stroke="#e5e7eb" stroke-width="1.5"/>
    <!-- Center circle -->
    <circle cx="0" cy="0" r="12" fill="#4f46e5" stroke="#ffffff" stroke-width="2"/>
  </g>

  <!-- Text -->
  <text x="128" y="220" font-family="Arial, sans-serif" font-size="20" font-weight="bold" fill="#ffffff" text-anchor="middle">TailorResume</text>
  <text x="128" y="240" font-family="Arial, sans-serif" font-size="14" fill="#e5e7eb" text-anchor="middle">Auth Server</text>
</svg>
